<?xml version="1.0" encoding="UTF-8"?>
<svg id="Layer_2" data-name="Layer 2" xmlns="http://www.w3.org/2000/svg" viewBox="0 0 674.18 81.25">
  <defs>
    <style>
      .cls-1 {
        fill: #282828;
      }
    </style>
  </defs>
  <g id="Layer_1-2" data-name="Layer 1">
    <g>
      <g>
        <path class="cls-1" d="M0,1.35h27.05l4.32,17.13,4.41,17.38,4.41-17.38L44.51,1.35h26.96v59.35h-17.8l.09-29.59.08-9.33-2.37,9.33-8.06,29.59h-15.85l-8.05-29.59-2.37-9.41.08,9.41.17,29.59H0V1.35Z"/>
        <path class="cls-1" d="M75.15,31.03c0-20.18,12.38-31.03,31.88-31.03s31.87,10.85,31.87,31.03-12.38,31.02-31.87,31.02-31.88-10.85-31.88-31.02ZM117.03,31.11c0-11.62-3.9-16.19-10-16.19s-10.09,4.58-10.09,16.19,3.98,16.02,10.09,16.02,10-4.49,10-16.02Z"/>
        <path class="cls-1" d="M142.42,1.35h21.7l9.41,16.19,9.33,16.53-.26-16.62V1.35h17.46v59.35h-21.7l-9.41-16.1-9.24-16.45.17,16.53v16.02h-17.46V1.35Z"/>
        <path class="cls-1" d="M204.68,1.35h52.14v13.65h-30.94v9.16h23.06v12.97h-23.06v10.34h30.94v13.23h-52.14V1.35Z"/>
        <path class="cls-1" d="M282.03,41.54L257.78,1.35h23.06l12.29,22.04,12.21-22.04h22.04l-24.16,40.1v19.25h-21.2v-19.16Z"/>
      </g>
      <g>
        <path class="cls-1" d="M390.62,1.34h13.46v.49c-4.16.49-6.28,5.22-9.3,15.26l-13.71,44.47h-.65l-13.3-40.88-14.93,40.88h-.65l-15.58-49.77c-2.12-6.77-4-9.63-7.42-9.95v-.49h19.01v.49c-4.98.33-6.36,2.77-4.81,7.75l12.4,39.74,11.18-31.01-2.12-6.53c-2.28-6.85-3.92-9.63-7.59-9.95v-.49h19.01v.49c-4.9.33-6.28,2.77-4.73,7.75l12.65,39,9.71-31.98c2.94-9.87,3.35-14.28-2.61-14.77v-.49Z"/>
        <path class="cls-1" d="M453.72,1.83c-5.55,0-5.87,3.67-5.87,9.71v39c0,6.04.33,9.71,5.87,9.71v.49h-18.93v-.49c5.55,0,5.87-3.67,5.87-9.71v-19.83h-25.05v19.83c0,6.04.33,9.71,5.87,9.71v.49h-18.93v-.49c5.55,0,5.87-3.67,5.87-9.71V11.54c0-6.04-.33-9.71-5.87-9.71v-.49h18.93v.49c-5.55,0-5.87,3.67-5.87,9.71v17.71h25.05V11.54c0-6.04-.33-9.71-5.87-9.71v-.49h18.93v.49Z"/>
        <path class="cls-1" d="M454.9,60.74v-.49c5.55,0,5.87-3.67,5.87-9.71V11.54c0-6.04-.33-9.71-5.87-9.71v-.49h18.93v.49c-5.55,0-5.87,3.67-5.87,9.71v39c0,6.04.33,9.71,5.87,9.71v.49h-18.93Z"/>
        <path class="cls-1" d="M476.16,58.13l-.49-12.48h.49c3.26,10.04,9.14,14.93,16.32,14.93,6.61,0,12.81-4.49,12.81-12.32s-5.87-10.77-12.89-14.28l-4.08-2.04c-5.79-2.86-11.42-6.61-11.42-15.34,0-9.3,6.85-16.24,16.56-16.24,4.49,0,10.53,1.47,14.44,3.51v9.71h-.49c-3.18-8.49-8.24-12.08-14.28-12.08-6.85,0-11.42,4.65-11.42,11.5s5.39,9.79,10.2,12.24l4.08,2.04c7.18,3.59,14.12,7.43,14.12,17.22s-7.51,17.22-18.6,17.22c-4.73,0-11.59-1.47-15.34-3.59Z"/>
        <path class="cls-1" d="M531.44,1.34c12.4,0,19.83,6.61,19.83,16.48,0,11.1-7.34,17.95-18.77,17.95-3.51,0-6.61-.82-8.32-1.47v16.24c0,6.04.65,9.71,6.2,9.71v.49h-19.26v-.49c5.55,0,5.87-3.67,5.87-9.71V11.54c0-6.04-.33-9.71-5.87-9.71v-.49h20.32ZM543.67,18.06c0-8.65-4.24-15.42-13.3-15.42h-3.1c-1.96,0-3.1.98-3.1,2.94v24.64c0,1.88.9,3.75,6.28,3.75,7.75,0,13.22-5.63,13.22-15.91Z"/>
        <path class="cls-1" d="M593.65,47.03l-1.88,13.71h-41.12v-.49c5.55,0,5.87-3.67,5.87-9.71V11.54c0-6.04-.33-9.71-5.87-9.71v-.49h39.9l1.06,12.24h-.49c-4.16-9.3-6.85-10.93-15.75-10.93h-11.67v26.52h9.14c7.34,0,8.98-1.96,10.36-8h.49v17.87h-.49c-1.39-5.79-3.02-8.57-10.36-8.57h-9.14v25.13c0,2.45.73,3.83,3.26,3.83h9.63c8.65,0,11.75-1.47,16.56-12.4h.49Z"/>
        <path class="cls-1" d="M640.23,58.13l-.49-12.48h.49c3.26,10.04,9.14,14.93,16.32,14.93,6.61,0,12.81-4.49,12.81-12.32s-5.87-10.77-12.89-14.28l-4.08-2.04c-5.79-2.86-11.42-6.61-11.42-15.34,0-9.3,6.85-16.24,16.56-16.24,4.49,0,10.53,1.47,14.44,3.51v9.71h-.49c-3.18-8.49-8.24-12.08-14.28-12.08-6.85,0-11.42,4.65-11.42,11.5s5.39,9.79,10.2,12.24l4.08,2.04c7.18,3.59,14.12,7.43,14.12,17.22s-7.51,17.22-18.6,17.22c-4.73,0-11.59-1.47-15.34-3.59Z"/>
        <path class="cls-1" d="M652.52,76.21c-12.26-7.33-17.81-20.62-23.96-32.84-.47-.93-.94-1.86-1.42-2.79-1.8-3.5-3.75-6.94-6.12-8.41v-.16c7.1-1.96,13.3-6.94,13.3-15.01,0-9.46-7.26-15.67-19.83-15.67h-20.23v.49c5.55,0,5.87,3.67,5.87,9.71v39c0,6.04-.33,9.71-5.87,9.71v.49h18.85v-.49c-5.55,0-5.79-3.67-5.79-9.71v-17.71h4.24s.08,0,.12,0c2.53.02,4,.74,5.75,3.68,2.92,4.88,5.25,9.39,7.66,13.98,2.73,5.2,5.46,10.89,9.3,15.36,3.66,4.26,6.96,7.76,11.79,10.66,2.22,1.33,4.59,2.42,7.05,3.22,2.51.82,5.13,1.36,7.77,1.47,1.12.04,2.22.08,3.34,0,.71-.06,1.41-.17,2.12-.27v-.49c-3.3-.18-9.95-1.84-13.94-4.22ZM607.31,5.58c0-1.96,1.14-2.94,3.1-2.94h3.1c9.14,0,13.22,6.28,13.22,14.85s-4.41,14.03-13.3,14.03h-6.12V5.58Z"/>
      </g>
    </g>
  </g>
</svg>